
      <svg
        width="300"
        height="326"
        viewBox="0 0 300 326"
        fill="none"
        xmlns="http://www.w3.org/2000/svg"
        role="img"
        aria-labelledby="descId"
      >
        <title id="titleId"></title>
        <desc id="descId"></desc>
        <style>
          .header {
            font: 600 18px 'Segoe UI', Ubuntu, Sans-Serif;
            fill: #2f80ed;
            animation: fadeInAnimation 0.8s ease-in-out forwards;
          }
          @supports(-moz-appearance: auto) {
            /* Selector detects Firefox */
            .header { font-size: 15.5px; }
          }
          
    .stagger { opacity: 0; animation: fadeInAnimation 0.3s ease-in-out forwards; }
  

          
      /* Animations */
      @keyframes scaleInAnimation {
        from {
          transform: translate(-5px, 5px) scale(0);
        }
        to {
          transform: translate(-5px, 5px) scale(1);
        }
      }
      @keyframes fadeInAnimation {
        from {
          opacity: 0;
        }
        to {
          opacity: 1;
        }
      }
    
          
        </style>

        

        <rect
          data-testid="card-bg"
          x="0.5"
          y="0.5"
          rx="4.5"
          height="99%"
          stroke="#e4e2e2"
          width="299"
          fill="#fffefe"
          stroke-opacity="1"
        />

        
      <g
        data-testid="card-title"
        transform="translate(25, 35)"
      >
        <g transform="translate(0, 0)">
      <svg
        class="icon"
        x="0"
        y="-13"
        viewBox="0 0 16 16"
        version="1.1"
        width="16"
        height="16"
      >
        <g transform="scale(.667)"><path fill="#CC342D" d="M20.156.083c3.033.525 3.893 2.598 3.829 4.77L24 4.822 22.635 22.71 4.89 23.926h.016C3.433 23.864.15 23.729 0 19.139l1.645-3 2.819 6.586.503 1.172 2.805-9.144-.03.007.016-.03 9.255 2.956-1.396-5.431-.99-3.9 8.82-.569-.615-.51L16.5 2.114 20.159.073l-.003.01zM0 19.089zM5.13 5.073c3.561-3.533 8.157-5.621 9.922-3.84 1.762 1.777-.105 6.105-3.673 9.636-3.563 3.532-8.103 5.734-9.864 3.957-1.766-1.777.045-6.217 3.612-9.75l.003-.003z"/></g>
      </svg>
    </g><g transform="translate(25, 0)">
      <text
        x="0"
        y="0"
        class="header"
        data-testid="header"
      >RubyGems &#8212; mberlanda</text>
    </g>
      </g>
    

        <g
          data-testid="main-card-body"
          transform="translate(0, 55)"
        >
          <g transform="translate(25, 0)">
        <text x="2" y="12" font-size="11" fill="#434d58" opacity="0.7">Profile</text>
        <a href="https://rubygems.org/profiles/mberlanda" target="_blank" rel="noopener"><text x="2" y="36" font-size="13" fill="#434d58" opacity="0.9" text-decoration="underline">mberlanda</text></a>
        <text x="85.33333333333333" y="12" font-size="11" fill="#434d58" opacity="0.7">Gems</text>
        <text x="85.33333333333333" y="34" font-size="20" font-weight="600" fill="#434d58">5</text>
        <text x="168.66666666666666" y="12" font-size="11" fill="#434d58" opacity="0.7">Downloads</text>
        <text x="168.66666666666666" y="34" font-size="20" font-weight="600" fill="#434d58">23.1M</text></g><line x1="25" y1="48" x2="275" y2="48" stroke="#434d58" stroke-width="1" opacity="0.15"/>
    <g class="stagger" style="animation-delay: 450ms" transform="translate(25, 56)">
      <text x="2" y="13" font-size="11" fill="#434d58">brpoplpush-redis_scri…</text>
      <text x="250" y="13" font-size="11" fill="#434d58" text-anchor="end">15.7M</text>
      
    <svg width="180" x="0" y="20">
      <rect data-testid="progress-background" rx="5" ry="5" x="0" y="0" width="180" height="8" fill="#fffefe"></rect>
      <svg data-testid="lang-progress" width="100%">
        <rect
            height="8"
            fill="#CC342D"
            rx="5" ry="5" x="0" y="0"
            class="lang-progress"
            style="animation-delay: 450ms;"
        />
      </svg>
    </svg>
  
    </g>
    <g class="stagger" style="animation-delay: 600ms" transform="translate(25, 96)">
      <text x="2" y="13" font-size="11" fill="#434d58">bulk_insert</text>
      <text x="250" y="13" font-size="11" fill="#434d58" text-anchor="end">7.4M</text>
      
    <svg width="180" x="0" y="20">
      <rect data-testid="progress-background" rx="5" ry="5" x="0" y="0" width="180" height="8" fill="#fffefe"></rect>
      <svg data-testid="lang-progress" width="46.980783738742794%">
        <rect
            height="8"
            fill="#CC342D"
            rx="5" ry="5" x="0" y="0"
            class="lang-progress"
            style="animation-delay: 600ms;"
        />
      </svg>
    </svg>
  
    </g>
    <g class="stagger" style="animation-delay: 750ms" transform="translate(25, 136)">
      <text x="2" y="13" font-size="11" fill="#434d58">jsonschema_serializer</text>
      <text x="250" y="13" font-size="11" fill="#434d58" text-anchor="end">13.0k</text>
      
    <svg width="180" x="0" y="20">
      <rect data-testid="progress-background" rx="5" ry="5" x="0" y="0" width="180" height="8" fill="#fffefe"></rect>
      <svg data-testid="lang-progress" width="2%">
        <rect
            height="8"
            fill="#CC342D"
            rx="5" ry="5" x="0" y="0"
            class="lang-progress"
            style="animation-delay: 750ms;"
        />
      </svg>
    </svg>
  
    </g>
    <g class="stagger" style="animation-delay: 900ms" transform="translate(25, 176)">
      <text x="2" y="13" font-size="11" fill="#434d58">effigie</text>
      <text x="250" y="13" font-size="11" fill="#434d58" text-anchor="end">4.8k</text>
      
    <svg width="180" x="0" y="20">
      <rect data-testid="progress-background" rx="5" ry="5" x="0" y="0" width="180" height="8" fill="#fffefe"></rect>
      <svg data-testid="lang-progress" width="2%">
        <rect
            height="8"
            fill="#CC342D"
            rx="5" ry="5" x="0" y="0"
            class="lang-progress"
            style="animation-delay: 900ms;"
        />
      </svg>
    </svg>
  
    </g>
    <g class="stagger" style="animation-delay: 1050ms" transform="translate(25, 216)">
      <text x="2" y="13" font-size="11" fill="#434d58">logic_or</text>
      <text x="250" y="13" font-size="11" fill="#434d58" text-anchor="end">2.5k</text>
      
    <svg width="180" x="0" y="20">
      <rect data-testid="progress-background" rx="5" ry="5" x="0" y="0" width="180" height="8" fill="#fffefe"></rect>
      <svg data-testid="lang-progress" width="2%">
        <rect
            height="8"
            fill="#CC342D"
            rx="5" ry="5" x="0" y="0"
            class="lang-progress"
            style="animation-delay: 1050ms;"
        />
      </svg>
    </svg>
  
    </g>
        </g>
      </svg>
    